M48
; DRILL file {KiCad 9.0.8-9.0.8~ubuntu24.04.1} date 2026-04-20T19:46:43+0200
; FORMAT={-:-/ absolute / metric / decimal}
; #@! TF.CreationDate,2026-04-20T19:46:43+02:00
; #@! TF.GenerationSoftware,Kicad,Pcbnew,9.0.8-9.0.8~ubuntu24.04.1
; #@! TF.FileFunction,Plated,1,2,PTH
FMAT,2
METRIC
; #@! TA.AperFunction,Plated,PTH,ViaDrill
T1C0.300
; #@! TA.AperFunction,Plated,PTH,ComponentDrill
T2C0.600
; #@! TA.AperFunction,Plated,PTH,ComponentDrill
T3C0.760
; #@! TA.AperFunction,Plated,PTH,ComponentDrill
T4C1.000
; #@! TA.AperFunction,Plated,PTH,ComponentDrill
T5C1.070
; #@! TA.AperFunction,Plated,PTH,ComponentDrill
T6C3.200
%
G90
G05
T1
X126.619Y-104.166
X131.216Y-97.003
X131.267Y-101.372
X131.47Y-86.817
X131.699Y-94.488
X132.08Y-108.382
X132.766Y-91.618
X134.036Y-108.255
X136.804Y-108.179
X137.16Y-82.55
X137.211Y-86.563
X138.074Y-115.977
X139.294Y-93.345
X140.03Y-96.723
X140.475Y-100.876
X140.538Y-102.972
X140.589Y-105.639
X140.894Y-101.575
X140.919Y-104.801
X141.485Y-99.739
X141.503Y-97.841
X141.656Y-108.433
X141.74Y-106.749
X142.045Y-110.863
X142.646Y-116.383
X142.672Y-94.107
X145.364Y-98.959
X145.44Y-100.991
X146.837Y-116.154
X147.422Y-107.214
X147.574Y-109.906
X147.62Y-99.015
X147.752Y-91.389
X148.26Y-92.685
X148.311Y-96.444
X148.422Y-103.277
X148.717Y-88.773
X148.793Y-107.595
X148.895Y-97.409
X149.784Y-120.461
X150.059Y-108.194
X151.714Y-97.587
X151.79Y-110.109
X151.867Y-89.992
X153.06Y-96.495
X153.949Y-96.063
X154.864Y-95.733
X155.016Y-91.872
X155.905Y-94.107
X156.972Y-119.025
X157.556Y-111.405
X158.877Y-91.212
X159.639Y-96.876
X159.766Y-113.868
X160.147Y-116.18
X160.757Y-116.84
X161.366Y-111.151
X161.442Y-85.573
X161.671Y-97.028
X161.798Y-91.212
X162.204Y-80.255
X162.458Y-111.684
X163.17Y-83.109
X164.338Y-118.39
X164.617Y-98.171
X164.744Y-116.637
X164.905Y-100.264
X165.557Y-111.455
X165.583Y-112.903
X165.633Y-105.182
X165.684Y-101.464
X166.091Y-77.369
X166.348Y-78.041
X166.522Y-84.633
X167.259Y-123.698
X167.589Y-115.57
X167.64Y-101.016
X167.691Y-83.49
X168.578Y-80.999
X169.088Y-73.33
X169.443Y-113.284
X169.901Y-81.864
X170.815Y-85.827
X170.917Y-111.151
X170.967Y-106.452
X171.653Y-82.957
X172.949Y-84.481
X173.888Y-106.35
X174.941Y-108.818
X176.098Y-93.09
X176.835Y-94.133
X177.19Y-80.772
X178.308Y-98.044
T3
X125.974Y-97.529
X126.631Y-95.075
X126.797Y-109.093
X127.288Y-92.622
X127.946Y-90.168
X128.067Y-111.293
X128.098Y-99.413
X128.756Y-96.959
X129.337Y-113.493
X129.413Y-94.506
X129.632Y-108.923
X130.071Y-92.053
X130.607Y-115.692
X130.902Y-111.123
X132.172Y-113.322
X133.442Y-115.522
T4
X161.798Y-120.93
X164.338Y-120.93
X166.878Y-120.93
X176.275Y-102.794
X176.275Y-105.334
T5
X172.996Y-90.059
X172.996Y-92.599
X172.996Y-95.139
T6
X135.382Y-126.899
X150.0Y-69.5
X150.0Y-130.5
X176.403Y-118.136
T2
G00X167.26Y-76.703
M15
G01X168.038Y-75.925
M16
G05
G00X170.322Y-73.641
M15
G01X170.888Y-73.075
M16
G05
G00X173.37Y-82.812
M15
G01X174.148Y-82.034
M16
G05
G00X176.432Y-79.75
M15
G01X176.997Y-79.185
M16
G05
M30
